/* XPM */
static char *test[] = {
/* width height num_colors chars_per_pixel */ 
"   64   64   64    1",
/* colors */ 
"a  c  #00008F",
"b  c  #00009F",
"c  c  #0000AF",
"d  c  #0000BF",
"e  c  #0000CF",
"f  c  #0000DF",
"g  c  #0000EF",
"h  c  #0000FF",
"i  c  #000FFF",
"j  c  #001FFF",
"k  c  #002FFF",
"l  c  #003FFF",
"m  c  #004FFF",
"n  c  #005FFF",
"o  c  #006FFF",
"p  c  #007FFF",
"q  c  #008FFF",
"r  c  #009FFF",
"s  c  #00AFFF",
"t  c  #00BFFF",
"u  c  #00CFFF",
"v  c  #00DFFF",
"w  c  #00EFFF",
"x  c  #00FFFF",
"y  c  #0FFFFF",
"z  c  #1FFFEF",
"1  c  #2FFFDF",
"2  c  #3FFFCF",
"3  c  #4FFFBF",
"4  c  #5FFFAF",
"5  c  #6FFF9F",
"6  c  #7FFF8F",
"7  c  #8FFF7F",
"8  c  #9FFF6F",
"9  c  #AFFF5F",
"0  c  #BFFF4F",
"!  c  #CFFF3F",
"@  c  #DFFF2F",
"#  c  #EFFF1F",
"$  c  #FFFF0F",
"A  c  #FFFF00",
"B  c  #FFEF00",
"C  c  #FFDF00",
"D  c  #FFCF00",
"E  c  #FFBF00",
"F  c  #FFAF00",
"G  c  #FF9F00",
"H  c  #FF8F00",
"I  c  #FF7F00",
"J  c  #FF6F00",
"K  c  #FF5F00",
"L  c  #FF4F00",
"M  c  #FF3F00",
"N  c  #FF2F00",
"O  c  #FF1F00",
"P  c  #FF0F00",
"Q  c  #FF0000",
"R  c  #EF0000",
"S  c  #DF0000",
"T  c  #CF0000",
"U  c  #BF0000",
"V  c  #AF0000",
"W  c  #9F0000",
"X  c  #8F0000",
/* pixels */
"666666666667686@6J6W6A69676766666666666666565636w6a6n6z646566666",
"6666666666667686@6J6W6A69676766666666666666565636w6a6n6z64656666",
"66666666666667686@6J6W6A69676766666666666666565636w6a6n6z6465666",
"666666666666667686@6J6W6A69676766666666666666565636w6a6n6z646566",
"6666666666666667686@6J6X6A69676766666666666666565636w6a6n6z64656",
"66666666666666667686@6J6W6A69676766666666666666565636w6a6n6z6465",
"566666666666666667686@6J6W6A69676766666666666666565636w6a6n6z646",
"6566666666666666667686@6J6W6A69676766666666666666565636w6a6n6z64",
"46566666666666666667686@6J6W6A69676766666666666666565636w6a6n6z6",
"646566666666666666667686@6J6W6A69676766666666666666565636w6a6n6z",
"z646566666666666666667686@6J6W6A69676766666666666666565636w6a6n6",
"6z646566666666666666667686@6J6W6A69676766666666666666565636w6a6n",
"n6z646566666666666666667686@6J6W6A69676766666666666666565636w6a6",
"6n6z646566666666666666667686@6J6W6A69676766666666666666565636w6a",
"a6n6z646566666666666666667686@6J6W6A69676766666666666666565636w6",
"6a6n6z646566666666666666667686@6J6W6A69676766666666666666565636w",
"w6a6n6z646566666666666666667686@6J6W6A69676766666666666666565636",
"6w6a6n6z646566666666666666667686@6J6W6A6967676666666666666656563",
"36w6a6n6z646566666666666666667686@6J6W6A696767666666666666665656",
"636w6a6n6z646566666666666666667686@6J6W6A69676766666666666666565",
"5636w6a6n6z646566666666666666667686@6J6W6A6967676666666666666656",
"65636w6a6n6z646566666666666666667686@6J6W6A696767666666666666665",
"565636w6a6n6z646566666666666666667686@6J6W6A69676766666666666666",
"6565636w6a6n6z646566666666666666667686@6J6W6A6967676666666666666",
"66565636w6a6n6z646566666666666666667686@6J6W6A696767666666666666",
"666565636w6a6n6z646566666666666666667686@6J6W6A69676766666666666",
"6666565636w6a6n6z646566666666666666667686@6J6W6A6967676666666666",
"66666565636w6a6n6z646566666666666666667686@6J6W6A696767666666666",
"666666565636w6a6n6z646566666666666666667686@6J6W6A69676766666666",
"6666666565636w6a6n6z646566666666666666667686@6J6W6A6967676666666",
"66666666565636w6a6n6z646566666666666666667686@6J6W6A696767666666",
"666666666565636w6a6n6z646566666666666666667686@6J6W6A69676766666",
"6666666666565636w6a6n6z646566666666666666667686@6J6W6A6967676666",
"66666666666565636w6a6n6z646566666666666666667686@6J6W6A696767666",
"666666666666565636w6a6n6z646566666666666666667686@6J6W6A69676766",
"6666666666666565636w6a6n6z646566666666666666667686@6J6W6A6967676",
"66666666666666565636w6a6n6z646566666666666666667686@6J6X6A696767",
"766666666666666565636w6a6n6z646566666666666666667686@6J6W6A69676",
"6766666666666666565636w6a6n6z646566666666666666667686@6J6W6A6967",
"76766666666666666565636w6a6n6z646566666666666666667686@6J6W6A696",
"676766666666666666565636w6a6n6z646566666666666666667686@6J6W6A69",
"9676766666666666666565636w6a6n6z646566666666666666667686@6J6W6A6",
"69676766666666666666565636w6a6n6z646566666666666666667686@6J6W6A",
"A69676766666666666666565636w6a6n6z646566666666666666667686@6J6W6",
"6A69676766666666666666565636w6a6n6z646566666666666666667686@6J6W",
"W6A69676766666666666666565636w6a6n6z646566666666666666667686@6J6",
"6W6A69676766666666666666565636w6a6n6z646566666666666666667686@6J",
"J6W6A69676766666666666666565636w6a6n6z646566666666666666667686@6",
"6J6W6A69676766666666666666565636w6a6n6z646566666666666666667686@",
"@6J6W6A69676766666666666666565636w6a6n6z646566666666666666667686",
"6@6J6W6A69676766666666666666565636w6a6n6z64656666666666666666768",
"86@6J6W6A69676766666666666666565636w6a6n6z6465666666666666666676",
"686@6J6W6A69676766666666666666565636w6a6n6z646566666666666666667",
"7686@6J6W6A69676766666666666666565636w6a6n6z64656666666666666666",
"67686@6J6W6A69676766666666666666565636w6a6n6z6465666666666666666",
"667686@6J6W6A69676766666666666666565636w6a6n6z646566666666666666",
"6667686@6J6W6A69676766666666666666565636w6a6n6z64656666666666666",
"66667686@6J6W6A69676766666666666666565636w6a6n6z6465666666666666",
"666667686@6J6W6A69676766666666666666565636w6a6n6z646566666666666",
"6666667686@6J6W6A69676766666666666666565636w6a6n6z64656666666666",
"66666667686@6J6W6A69676766666666666666565636w6a6n6z6465666666666",
"666666667686@6J6W6A69676766666666666666565636w6a6n6z646566666666",
"6666666667686@6J6W6A69676766666666666666565636w6a6n6z64656666666",
"66666666667686@6J6W6A69676766666666666666565636w6a6n6z6465666666"
};
